<?xml version="1.0" standalone="no"?>
<!DOCTYPE svg PUBLIC "-//W3C//DTD SVG 20010904//EN"
 "http://www.w3.org/TR/2001/REC-SVG-20010904/DTD/svg10.dtd">
<svg version="1.0" xmlns="http://www.w3.org/2000/svg"
 width="500.000000pt" height="500.000000pt" viewBox="0 0 500.000000 500.000000"
 preserveAspectRatio="xMidYMid meet">
<metadata>
Created by potrace 1.11, written by Peter Selinger 2001-2013
</metadata>
<g transform="translate(0.000000,500.000000) scale(0.100000,-0.100000)"
fill="#000000" stroke="none">
<path d="M2010 3530 c0 -18 7 -20 60 -20 l60 0 0 -520 0 -520 -60 0 c-53 0
-60 -2 -60 -20 0 -19 7 -20 235 -20 228 0 235 1 235 20 0 18 -7 20 -75 20
l-75 0 0 250 0 250 55 0 c108 0 143 -32 159 -142 6 -38 11 -48 27 -48 18 0 19
9 19 210 0 199 -1 210 -19 210 -15 0 -21 -12 -30 -61 -16 -91 -44 -114 -146
-120 l-60 -4 -3 241 -2 242 68 7 c92 9 177 -7 221 -43 45 -37 81 -109 88 -178
5 -49 8 -54 29 -54 28 0 29 12 17 208 l-6 112 -369 0 c-361 0 -368 0 -368 -20z"/>
<path d="M2850 2500 c-113 -24 -213 -105 -244 -197 -23 -67 -21 -180 5 -248
34 -91 94 -142 272 -230 221 -109 285 -162 294 -247 9 -78 -49 -151 -147 -183
-73 -24 -215 -17 -287 14 -52 23 -68 41 -38 41 31 0 72 29 85 60 32 78 -22
160 -106 160 -39 0 -51 -5 -80 -34 -29 -29 -34 -41 -34 -80 0 -142 126 -220
355 -220 134 0 198 22 275 91 80 72 95 108 95 233 0 89 -3 111 -22 146 -39 73
-114 129 -290 216 -228 113 -273 156 -273 258 0 118 79 180 227 180 80 -1 132
-14 180 -45 l27 -18 -33 -12 c-102 -34 -119 -165 -26 -209 44 -21 73 -20 112
4 42 25 57 55 56 111 -2 120 -114 203 -288 214 -38 2 -90 0 -115 -5z"/>
</g>
</svg>
